<mxfile host="app.diagrams.net" modified="2024-01-29T11:12:54.834Z" agent="Mozilla/5.0 (Windows NT 10.0; Win64; x64) AppleWebKit/537.36 (KHTML, like Gecko) Chrome/121.0.0.0 Safari/537.36" etag="I4G3PgUxUe-plsDPyVYO" version="22.1.18" type="device">
  <diagram name="Page-1" id="kKg5sct2AW19iffvoHgX">
    <mxGraphModel dx="2424" dy="1193" grid="1" gridSize="10" guides="1" tooltips="1" connect="1" arrows="1" fold="1" page="1" pageScale="1" pageWidth="850" pageHeight="1100" math="0" shadow="0">
      <root>
        <mxCell id="0" />
        <mxCell id="1" parent="0" />
        <mxCell id="HJJHkAVv1ydhezdsSPti-2" value="" style="whiteSpace=wrap;html=1;aspect=fixed;fillColor=#f5f5f5;" vertex="1" parent="1">
          <mxGeometry x="40" y="70" width="460" height="460" as="geometry" />
        </mxCell>
        <mxCell id="HJJHkAVv1ydhezdsSPti-4" value="&lt;font style=&quot;font-size: 20px;&quot;&gt;Output&lt;/font&gt;" style="text;html=1;align=center;verticalAlign=middle;resizable=0;points=[];autosize=1;strokeColor=none;fillColor=none;" vertex="1" parent="1">
          <mxGeometry x="50" y="25" width="80" height="40" as="geometry" />
        </mxCell>
        <mxCell id="HJJHkAVv1ydhezdsSPti-6" value="tab &amp;amp; title //&amp;nbsp;" style="rounded=1;whiteSpace=wrap;html=1;" vertex="1" parent="1">
          <mxGeometry x="70" y="80" width="370" height="60" as="geometry" />
        </mxCell>
        <mxCell id="HJJHkAVv1ydhezdsSPti-143" value="output" style="swimlane;fontStyle=0;childLayout=stackLayout;horizontal=1;startSize=30;horizontalStack=0;resizeParent=1;resizeParentMax=0;resizeLast=0;collapsible=1;marginBottom=0;whiteSpace=wrap;html=1;strokeColor=inherit;align=center;verticalAlign=middle;fontFamily=Helvetica;fontSize=16;fontColor=default;fillColor=none;" vertex="1" parent="1">
          <mxGeometry x="-20" y="590" width="510" height="330" as="geometry" />
        </mxCell>
        <mxCell id="HJJHkAVv1ydhezdsSPti-144" value="input&lt;br&gt;" style="text;strokeColor=none;fillColor=none;align=left;verticalAlign=middle;spacingLeft=4;spacingRight=4;overflow=hidden;points=[[0,0.5],[1,0.5]];portConstraint=eastwest;rotatable=0;whiteSpace=wrap;html=1;fontSize=16;fontFamily=Helvetica;fontColor=default;" vertex="1" parent="HJJHkAVv1ydhezdsSPti-143">
          <mxGeometry y="30" width="510" height="30" as="geometry" />
        </mxCell>
        <mxCell id="HJJHkAVv1ydhezdsSPti-145" value="&lt;span style=&quot;white-space: pre;&quot;&gt;&#x9;&lt;/span&gt;outputs: Port[]" style="text;strokeColor=none;fillColor=none;align=left;verticalAlign=middle;spacingLeft=4;spacingRight=4;overflow=hidden;points=[[0,0.5],[1,0.5]];portConstraint=eastwest;rotatable=0;whiteSpace=wrap;html=1;fontSize=16;fontFamily=Helvetica;fontColor=default;" vertex="1" parent="HJJHkAVv1ydhezdsSPti-143">
          <mxGeometry y="60" width="510" height="30" as="geometry" />
        </mxCell>
        <mxCell id="HJJHkAVv1ydhezdsSPti-146" value="&lt;span style=&quot;white-space: pre;&quot;&gt;&#x9;&lt;/span&gt;onChangeOutputs: (output: Port) =&amp;gt; Port" style="text;strokeColor=none;fillColor=none;align=left;verticalAlign=middle;spacingLeft=4;spacingRight=4;overflow=hidden;points=[[0,0.5],[1,0.5]];portConstraint=eastwest;rotatable=0;whiteSpace=wrap;html=1;fontSize=16;fontFamily=Helvetica;fontColor=default;" vertex="1" parent="HJJHkAVv1ydhezdsSPti-143">
          <mxGeometry y="90" width="510" height="30" as="geometry" />
        </mxCell>
        <mxCell id="HJJHkAVv1ydhezdsSPti-148" value="state" style="text;strokeColor=none;fillColor=none;align=left;verticalAlign=middle;spacingLeft=4;spacingRight=4;overflow=hidden;points=[[0,0.5],[1,0.5]];portConstraint=eastwest;rotatable=0;whiteSpace=wrap;html=1;fontSize=16;fontFamily=Helvetica;fontColor=default;" vertex="1" parent="HJJHkAVv1ydhezdsSPti-143">
          <mxGeometry y="120" width="510" height="30" as="geometry" />
        </mxCell>
        <mxCell id="HJJHkAVv1ydhezdsSPti-149" value="&lt;span style=&quot;white-space: pre;&quot;&gt;&#x9;&lt;/span&gt;expandRows: id[]" style="text;strokeColor=none;fillColor=none;align=left;verticalAlign=middle;spacingLeft=4;spacingRight=4;overflow=hidden;points=[[0,0.5],[1,0.5]];portConstraint=eastwest;rotatable=0;whiteSpace=wrap;html=1;fontSize=16;fontFamily=Helvetica;fontColor=default;" vertex="1" parent="HJJHkAVv1ydhezdsSPti-143">
          <mxGeometry y="150" width="510" height="30" as="geometry" />
        </mxCell>
        <mxCell id="HJJHkAVv1ydhezdsSPti-150" value="&lt;span style=&quot;white-space: pre;&quot;&gt;&#x9;&lt;/span&gt;outputsState: Port[]" style="text;strokeColor=none;fillColor=none;align=left;verticalAlign=middle;spacingLeft=4;spacingRight=4;overflow=hidden;points=[[0,0.5],[1,0.5]];portConstraint=eastwest;rotatable=0;whiteSpace=wrap;html=1;fontSize=16;fontFamily=Helvetica;fontColor=default;" vertex="1" parent="HJJHkAVv1ydhezdsSPti-143">
          <mxGeometry y="180" width="510" height="30" as="geometry" />
        </mxCell>
        <mxCell id="HJJHkAVv1ydhezdsSPti-151" value="action" style="text;strokeColor=none;fillColor=none;align=left;verticalAlign=middle;spacingLeft=4;spacingRight=4;overflow=hidden;points=[[0,0.5],[1,0.5]];portConstraint=eastwest;rotatable=0;whiteSpace=wrap;html=1;fontSize=16;fontFamily=Helvetica;fontColor=default;" vertex="1" parent="HJJHkAVv1ydhezdsSPti-143">
          <mxGeometry y="210" width="510" height="30" as="geometry" />
        </mxCell>
        <mxCell id="HJJHkAVv1ydhezdsSPti-152" value="&lt;span style=&quot;white-space: pre;&quot;&gt;&#x9;&lt;/span&gt;dragRow: () =&amp;gt;&amp;nbsp; id; // use dnd&amp;nbsp;&amp;nbsp;" style="text;strokeColor=none;fillColor=none;align=left;verticalAlign=middle;spacingLeft=4;spacingRight=4;overflow=hidden;points=[[0,0.5],[1,0.5]];portConstraint=eastwest;rotatable=0;whiteSpace=wrap;html=1;fontSize=16;fontFamily=Helvetica;fontColor=default;" vertex="1" parent="HJJHkAVv1ydhezdsSPti-143">
          <mxGeometry y="240" width="510" height="30" as="geometry" />
        </mxCell>
        <mxCell id="HJJHkAVv1ydhezdsSPti-153" value="&lt;span style=&quot;white-space: pre;&quot;&gt;&#x9;&lt;/span&gt;handleExpandCollapse: () =&amp;gt; id;&amp;nbsp;" style="text;strokeColor=none;fillColor=none;align=left;verticalAlign=middle;spacingLeft=4;spacingRight=4;overflow=hidden;points=[[0,0.5],[1,0.5]];portConstraint=eastwest;rotatable=0;whiteSpace=wrap;html=1;fontSize=16;fontFamily=Helvetica;fontColor=default;" vertex="1" parent="HJJHkAVv1ydhezdsSPti-143">
          <mxGeometry y="270" width="510" height="30" as="geometry" />
        </mxCell>
        <mxCell id="HJJHkAVv1ydhezdsSPti-155" value="&lt;span style=&quot;white-space: pre;&quot;&gt;&#x9;&lt;/span&gt;editRow: () =&amp;gt; Port;&amp;nbsp; // double click could edit table content" style="text;strokeColor=none;fillColor=none;align=left;verticalAlign=middle;spacingLeft=4;spacingRight=4;overflow=hidden;points=[[0,0.5],[1,0.5]];portConstraint=eastwest;rotatable=0;whiteSpace=wrap;html=1;fontSize=16;fontFamily=Helvetica;fontColor=default;" vertex="1" parent="HJJHkAVv1ydhezdsSPti-143">
          <mxGeometry y="300" width="510" height="30" as="geometry" />
        </mxCell>
        <mxCell id="HJJHkAVv1ydhezdsSPti-156" value="" style="shape=image;verticalLabelPosition=bottom;labelBackgroundColor=default;verticalAlign=top;aspect=fixed;imageAspect=0;image=data:image/png,iVBORw0KGgoAAAANSUhEUgAAA48AAADNCAYAAAAYEUX1AAAgAElEQVR4Ae3d6Y/VyJrn8f5f5+VIM5pRd2vUmtFI0yPdvlJP32npjtQj1aUW9oJiTfai2AuKJVmSPblJAsVOAUkCBUVBtH6G5+Rz4kT4+KQzybT9tXR0NjtsfyJsx+MI238TGBBAAAEEEEAAAQQQQACBlgi8fv1r+NOfV4T/+F//Z9/r7//HH8OlK9crr6XG1TRxOt+s2RR+//33yum0acS/adPKsC4IIIAAAggggAACCCDQbYHnMy/CP//rFwNBn4LAv/2HP4RzFy4PBcoFjkrjH//45/D4ydOhabRxBILHNuYq64QAAggggAACCCCAQIcF6gSQBI75gkPwmLfhHwQQQAABBBBAAAEEEGiowHwCSALH8swmeCz34V8EEEAAAQQQQAABBBBoqMAoASSB4/BMJngcbsQYCCCAAAIIIIAAAggg0FCBKgFkWeD4h//zb+Hp0+cNXfuFXWyCx4X1JDUEEEAAAQQQQAABBBBYZgJlAeR/+rv/FfSK76qq7wSO/RlJ8NjvwTcEEEAAAQQQQAABBBBooUBZAEngWC3DCR6rOTEWAggggAACCCCAAAIINFygagBJi2M6owke0y78igACCCCAAAIIIIAAAi0UUAD5xz/9/2Q3VbVA6j+NwzAo8NmDxw8fPoQ7dx+EM+cvh3MXr4XnM7ODSxVCuHDpetix9/DAa2r65+T4/IgAAggggAACCCCAAAIIDBM4d+Fy+Nt/+EM2eNR/GodhUOCzBo+/vXsXdu47Er5Yuan3WrF6Szg5PjGwZAePne6N48dXwMmAAAIIIIAAAggggAACCIwqMCxwtGsfCSDTsqXB45NfnoWV344lgzgf0OU+a1qlYcOps5eSaa1cvz3cf/jYRiveCR77OPiCAAIIIIAAAggggAACNQSqBo4EkHnkzxo85gLCL9dsDTdu3ulbyty4tDz2MfEFAQQQQAABBBBAAAEEhgicHp8I/+W//e9kV9V/+pd/C3pZ0OjfaYHsh/2swWOu5fHrddvC7Z/v9y1ZneDxzdu3YeLyZNi680D4bvv34dXrX/vS5gsCCCCAAAIIIIAAAgh0Q6AscPyXP68IL1+9Cq9f/xr+9OcVBJBDisRnDR5nZ18VwVzczVWBom6k44dRg8c3b96Gw8fHw+oNO/q6xm7Yupfg0cPyGQEEEEAAAQQQQACBjghUCRyNoiyAVKul0ur6MK/g8S+rNodv1m8PK9ePlb6+3bI3PH0202esIE93WtWNc3Z9fzRM/vXWQOCoCUYNHnPXZxI89vHzBQEEEEAAAQQQQACBTgicGr8Q/vPf/2OyNdFaHGMIAshYpP/7vILH+EY4/UkuzDeCx4VxJBUEEEAAAQQQQAABBLomMJ/A0YzUjVXBpb/20T53vQWS4NFKCe8IIIAAAggggAACCCDQeIGp6TvZ5zjmWhzjlS4LIP/uv/9TmL7VzWfPEzzGJeXTd91kZ3LqdtHFVt1s9dJ33YxnoQbNY/rOvTBxZTI8m3mxUMmSDgIIIIAAAggggAACnRXQvVSO/HhqoMvqP//rF+H5CHXuVACpbrDfHziWvOyuC+CfNXjU4zj0WI74hjnbdx8asK7SbTWXXpx+/F1p5wbd9VV3aNV1nfF0+q7ft+w8EB49fppLoni2Zer5mHb95cyL2bB114G+eaQMsjPgDwQQQAABBBBAAAEEEMgKxAHkqIGjJaxgU9Oq22rXA0eZEDx+Khm/vXsX9h443hfQpYJH+23F6i3hpzMTybMOZTfvefTkadi4dd9AYErwaJso7wgggAACCCCAAAII1BewAPL//r8vR2pxjOesAFJpqDUzfkJEPG7bvxM8hhAUOO7Ye3ggoLNAMfe+YtXmMH7+ykAZKQsed+8/lpwPweMAIz8ggAACCCCAAAIIIFBLQMHe+/fva6WhiZVG1wNHOXQ+eFQhyHWRVeuiuqgqsNw0tj8oWIwDST2y5O79R30FMhc8rly/PXy1drDbrtIkeOwj5AsCCCCAAAIIIIAAAggsM4F5BY9xAJX6rmsbdU2iH3LXKKYCp1xAd+7itV6Sunbw7MTV4mY2x0+dD1+t3TYQ3K3esCOcHJ/ou/GNrmu0IbdM6zbtDvcfPrHRivdbd+6H1LWM+w/91DdeLnj0TgpEFUzqWZlfr91G8NgnyBcEEEAAAQQQQAABBBBYbgKNDh49Zi5gs5vU+HHts1odd31/dCDg/HrdtqBAMTUcPXF2YHwFmjMvXvZGzy2LBY/bdh0Msy9f9cbXh4W8i2tfwnxBAAEEEEAAAQQQQAABBBZAoNPB4+MnT5MtiQooc32ab0zdHrhjrLqiTrlnvZQFj7pZzuxsf+C4APlIEggggAACCCCAAAIIIIDAogp0Oni8eOVG8u6qFy5dz6LnAkPfnTY3jh7zMXF5Mps2fyCAAAIIIIAAAggggAACy1Wg08HjjyfPDXRBta6lo75XCR51jaMe1cGAAAIIIIAAAggggAACCDRNYF7Bo24ao9a1UYfczWnme8McP/9ca1/ZNY+5m/KMGjhq/CrBY9my+HXhMwIIIIAAAggggAACCCCw3AQIHlduWpDWR4LH5Va0WR4EEEAAAQQQQAABBBBYSAGCx0TwuHHbvuLZjnq+Y9XX1PTPvXyZTytob2I+IIAAAggggAACCCCAAALLUKDTweP4hSvJVkf9XmcgeKyjx7QIIIAAAggggAACCCCwHAVaHzzGz2D0mZB67IauXyx7VIefPveZ4DEnw+8IIIAAAggggAACCCDQVIHWBI/Pnr8IazbuHGhJ/GrttjB9514yf2ZevAwKLuMb5Hy5ZmuY/Out5DTxj2/evo1/Km4mpJsKxelyw5wBKn5AAAEEEEAAAQQQQACBhgi0Jnh8/eubsHHrvoGATQHct1v2hvsPH4cPHz6Eu/cfhesuMDx64mxyGgWQJ8cnwm/v3g1k5fv374vgcvOOH8LYnkMD/9PyOEDCDwgggAACCCCAAAIIINBwgdYEj8oHdTeNW/tS3/WIDhuePptJtljadH9ZtTl8s357WLl+rHjps36z/1OPGSF4NF3eEUAAAQQQQAABBBBAoC0CrQoer9+YDl+u2dIL7CzAi9998KiMnJy6HdS9NR6vyneCx7ZsCqwHAggggAACCCCAAAIIlAm0Knh89+73sHPfkaFBYBw8Ckg3z1m1YcfQaeOAkuCxrHjxHwIIIIAAAggggAACCLRFoFXBozJF1ygeOnY6rFidb4E8cmI8mX9v3rwNR0+Mh6/XDW+FXLl+e1AQOvvy1UBadFsdIOEHBBBAAAEEEEAAAQQQaLhAafDY5HVTEHnj5u1w5vzl3mviymR4NvNi6Grpxjq6FlLj++n1WXduffX616FpMAICCCCAAAIIIIAAAggg0CaB1gaPbcok1gUBBBBAAAEEEEAAAQQQWGoBgselzgHmjwACCCCAAAIIIIAAAgg0QIDgsQGZxCIigAACCCCAAAIIIIAAAkstQPC41DnA/BFAAAEEEEAAAQQQQACBBggQPDYgk1hEBBBAAAEEEEAAAQQQQGCpBQgelzoHmD8CCCCAAAIIIIAAAggg0AABgscGZBKLiAACCCCAAAIIIIAAAggstQDB41LnAPNHAAEEEEAAAQQQQAABBBogQPDYgExiERFAAAEEEEAAAQQQQACBpRYgeFzqHGD+CCCAAAIIIIAAAggggEADBAgeG5BJLCICCCCAAAIIIIAAAgggsNQCBI9LnQPMHwEEEEAAAQQQQAABBBBogADBYwMyiUVEAAEEEEAAAQQQQAABBJZagOBxqXOA+SOAAAIIIIAAAggggAACDRAgeGxAJrGICCCAAAIIIIAAAggggMBSCxA8LnUOMH8EEEAAAQQQQAABBBBAoAECBI8NyCQWEQEEEEAAAQQQQAABBBBYagGCx6XOAeaPAAIIIIAAAggggAACCDRAgOCxAZnEIiKAAAIIIIAAAggggAACSy1A8LjUOcD8EUAAAQQQQAABBBBAAIEGCBA8NiCTWEQEEEAAAQQQQAABBBBAYKkFCB6XOgeYPwIIIIAAAggggAACCCDQAAGCxwZkEouIAAIIIIAAAggggAACCCy1AMHjUucA80cAAQQQQAABBBBAAAEEGiBA8NiATGIREUAAAQQQQAABBBBAAIGlFiB4XOocYP4IIIAAAggggAACCCCAQAMECB4bkEksIgIIIIAAAggggAACCCCw1AIEj0udA8wfAQQQQAABBBBAAAEEEGiAAMFjAzKJRUQAAQQQQAABBBBAAAEEllqA4HGpc4D5I4AAAggggAACCCCAAAINECB4bEAmsYgIIIAAAggggAACCCCAwFILEDwudQ4wfwQQQAABBBBAAAEEEECgAQIEjw3IJBYRAQQQQAABBBBAAAEEEFhqAYLHpc4B5o8AAggggAACCCCAAAIINECA4LEBmcQiIoAAAggggAACCCCAAAJLLUDwuNQ5wPwRQAABBBBAAAEEEEAAgQYIEDw2IJNYRAQQQAABBBBAAAEEEEBgqQUIHpc6B5g/AggggAACCCCAAAIIINAAgWzw+OHDh/Bs5kV48suzgder179WWjWfxovZV0On8ePH89Wy6P9RBp/efOb/5u3bUWYXfnv3Lvzy9Hnh9fTZTHj//n1yei3X41+ehXMXr4Uz5y8XL31+9PhpdppkQh350edjXPb8f7JXHgwblK8qX3Ee+bTi8hfPN56H/tc0VcqplRO/vDZ9PN+y76OWz3iZ+Y7AchFQWZ6+c6+3P9R+8dad+0O3Z+1jtR1rO6myPeg4oHHteGDbYtl2Fv9n08rO0isbJ2Vs2zv7i5QOvyGQF9C2Mzl1u29foe/6fdgQT3v2wtVw78GjofWusv1Elf2OLVdZOrYP8fUCm67r72V1M78/no+TjiGqe/v6+OVrU5XKU2p+qWOZ0itbTq1f02KCbPCojWzD1r3hi5Wbkq8v12wNe374sTgQpwD12/2Hj8PK9duL6Vdv3FkEVrlx9fuwea5YtTl8t/37cOfug7Jkev/Vnf+u74+OFLCeOnupZ7Xy27EBGxWQ8fNXgv7LuY7tOdxbfj58FPDl4uCx030s/j+ZHjh6amieaSehceM8itOK86iszGu5NL62GaVTNty4eScoLb30WYNNH8+z7LvWgwGBJgvooK19nvbtqbKubeTAkZPZbUoVLtufVtketu8+VMxH7xpsW0zNO/ebTavpLb3UuFon/Z86Xtn2zv6iyaWXZf+cArd/vh++3bI3/CWzr9A2qDpbatC0qjvmpv163bZw4vSF7MmqYfuJFau3hK07D4TJv94qrX8MS0fr4OsFqXXp4m/D6mbK13WbdodT4xfDmzfVGn003tET40F5n9p/K83NO34oTi5UMdexTGUgdyzTPDaN7Q+vf33TS67JMcG8g0fDFvyNm7d7GP7D0RNne5mijJi4POn/HvjsC4g2oJXrx4rX12v7M1f/DUtLideZv9ZPga8C0CqDCqJ2TuYSByYqJFZh0Dja2Wzcui/s2Hu4qGBYBchXTKrMtwvj+HIhQz/4/+SqsqEdeNkw3+DR8jZV5i1vqQyWyfMfAnMC5y9eL7ZX26607WqfqGByzXe7+g7CazbuDHfvP5qb+NOn5Rw82nppXz9+4UrfsrO/6OPgCwJZAbXW/XDkZF/gpzqh7SvWfrertx+J60+qd6ke6Cv0mnbz2P6i3rVqw46+dDdu2xdmXswOLEuVoM+29/Wb94T7D58MpKEfqqSj/aDGY5gTiOt5Zp16/2rttnD+4rXSIP7Rk6dFsGnTq3zomKNjj8qV8qD33+ot4cy5y9n0VMZ+OjNR1OltGk2vcqD6vd4thvH1w6bHBJWCx1SF/fip8z1g4cxG3VJ9MKVMEerWXQfCu3e/z5WI6JMvIPE8tQM5OT7Rm6fSfD4zuJFbknXnb4VHO54qw8UrN4odlCoKCpTj4PH6jenw5ZothYNabLV88aD1mbhSHmDH03The1m58P+Zrw4A+j03VAke4/Kn9MrKfN3KYGpZc8uZGpffEGiSgMq29pU6LugkofafcTd/7SOP/XS2N556r+ig74e6waNPyz6Pkqa1PMaVVh2v1CVO6/ZxHftPRLK/MG3eEcgLaDtSBdwq5bmeZ6qIq3VRlXg/HD4+3gsOFWRO3747EATMvnwV9h083hsvVX+woC8V2GkZb966WwSjFqSmTjBrucrS8cvN534BX8+L62bKe3X51O/Wiqg6+OEfzwzktVLVMcRiEuWXeqvF9UWlee3GdNAxR2VP452buNq/UCEU6du+XOOpjOVanx8++qVo3baWx6bHBPMKHk1QwZzAlFE6+PvBYNR69+PJc8U436zbHu49yLfklRUQS9vmqYrH1cmb9vPAe935q7la61alu60CYgXGGl9nFvQeB4/aOel3FS5d58JQXaCsXPj/lAe289COIzfkgjKfVryDsrSs/MVl3nYg/sySTRO/Vz2A5JYzTo/vCDRJQNcoqiWx2L9u2BEePEqfpbd1+thC+THQ3L3/WF+FYJRAT+nlgj2bl95HSXNYeleu3+ydNNRx0Ab2FybBOwJ5AW0z2k/otf/QT9lupakUdM201QfUmhQ3cPhpFCzoRJXNy2+rGq/qMVsBrAUcqxP7tqrp+GXjc/8lbbm6mZxUh9u+5+OlCQr4dJmYH5TPOoYon1P/+3H1WYGm6uwaX8csHbv8YI1G+n/b7oMDQagfN/7c9JigVvAoWLumMc5Q9T0XqCr0Ald/ZH0va8mrUnm3jU9pqXKdG+rOX8GHrZuuZSwbdKMHNZVrfE2nZYuDR6tkVAkuyubVxf/KykXff0dP9boG66Chg0dqyAVlfWlF3WMtnVyZpzJoQrwjUC5glxPo4B2fdExNqQP+94dOFPtV7We1v7VhlEBP09h+WO+5YZQ0h6X38tXr4jotHRP8PNlf5PT5HYGPAmqpUbdSbTtbdh4YKXDUPsPqgGV1AW+tFkTNR/OLGw2s3plqefRp6LO6rNpyqxuk7203Sjpxul3+XqVuZj7KRwsglQ8qRzZYXV15HJ+ItHHid38C0McvfpnWbd5d2hMyTlPf7djR1JigVvDoD7I+eNTdorTxqXXGrk3UWSNlWKqLq8H6zPDp2f96t41PaV24dN3/1fu8EPNXE7VVWNRVItXNVDP0FRvtrDSdli0OHg8cOVX8Hld+egvNh6xAWbmI/9PZRV1UrzzIHXDqBI+5Mk9lMJt9/IFAT8Bvr2X71d4Enz74g74/NvjtsexkoqVnB2wfyNl/9j5KmsPS8+vr58n+wrR5RyAtcHL8YnEcrxKwxSk8VsPGpxsTql6melqVQfVV1VtVf/DdFK3eWXVZ7ASZAle1Rtowajo2Xdff/X7U7/9zLv544VuRbb87Sj3cXwLnAz31fLTL1OJr2nPL5X9vekxQK3hUF1R1RdWG5jPI7jrqz95YN1Jdl6bPqaFKAcltlD69hZi/KiJWAMuW2e7oauPkAhPbaRSB5fqxcGMqfZMhvx58/ihQVi5S/6nPuXbyslY303jI5VEqrXjaXJm3nZLfucTT2ncrC8MORLnltHR4R6BpAqpIWVcyf8wYth5+29yy44fe2fxRAj3NY1iwp3FGSXNYejMvXvZ63agSawP7C5PgHYFBAQV723YdLI7hVY6pcQrq0aAgML68JB4v/u6DTnUrtKHqMdvG9/s5BcE2jJqOTdf1d7//rxI86nEZdgNLO17434oTlyM8is/21/7SOwv+dJJC5WbUwcpCU2OCeQeP2rh1oalW3Efx/vo/f7D0mZ87E+THiQuI5qezQpqX5plrcl6o+aviHqeVOntlwaydRc9V+DWtxlVXLS2/XrqusurdXEctmG0av6xcpP6TtbUaq9tCfOezXB6l0vKOSjdV5jWO7VyqHOhsp0Hw6HX53AUBO1s77Jr1lIUFan4bGyXQU5qWht5zwyhpDkvv9LlLvUqs9cLRfNlf5PT5HYEQfHdvX4+samOtlr6yX2VaXwfw+4iqx2ybx7PnL3rXdSvIsMGno/2B9jXxq+x5gJZO1959vsSxQc5C5Ub1bPVEU3nyJ/L8iYHc9P53qzNanU11QTu5MWogauk2PSaYV/CojFQl2gKhnfuO9M4EW2tdqnJggZZvkTRIvfsComskdZctvXRbZbvVrc4k7c3crVRpLNT8VVg0WDcGXc8YB3rqIqluuFomqxhYIYu7rSotFZZLV//a6w+vgq1p1b1Sz4hhSAv4chHvOHL/6c616ocuY5Uh9YO3IZdHubQ0nf7LlXn9T2XQdHlHIC9g254dhPNjDv5jlYEmBI/a36jXg9ZT+6D4Do7sLwbzl18QMAF/Aic+5ts4Ze+2faXqYWXT+dapOsGjr0uk0tE+Iffy45cta5f+855Vy0NcBuqUKWvJtuOWX546+dXkmKBS8Ciw3DMXFfj4u1hZhqWubfRN+amb0PgMSW1YivAfuItfUxvPQs3fgke/TLpu0w/q56zgz6+rVY7KdlrqQ62Hk1orqtZVwbZuM63CxNAv4PMg3nGU/Wd3wtJJDn/9Qi6PfFqjlHktrZU7X7HtX4u5b/7soz7nhtxy5sbndwSWu4CVaTsIj7K8yzl41P67d4yMHjqtE6G60ZYf2F94DT4j0C9Qp6KvlGz7KquH9c/x47fFCB510xwb7NivOp+679s+w7/rUW4M/QK+bhbXAfvHnPtmZUC9z3QflDplarGCR1vaJsYElYLHVCCnlrhTZy/2PZvLWuI0fhxoCUndQNX/WP+nmnp9AVGT8Jnzl8Pps5eKW+AqSNN0elis0kkNCzl/VXJsSF1D6S+iVYuqDVY5qrLT0voeVAvup+edaR31XCKGfgFfLuIdR9l/KidqFVe58bdZzuWRT0vTxK9UmbcltR0VwaOJ8I7AoIAdhFM9UwbH7v9FZ3i1Teq2+/asLF8h8Pvs/innvlkaZWeLR0nT0ov3Ffquk4OHjp1O3myN/cVcnvAJgVjAd/sctYuh0tL11NoG63RbTQV9VU96+X2If2yYBY9V04lduvrd183iOmDOxPbNdryoU6aszvjV2q1h6tbPwZ9ksGsqc8sxyu9az6bEBJWCR10/po3BXrk+2VYxSB1I49/8dZKGmysgao3TtSNqQdIrfnaLTb+Q8/cVEbt7q9bBWkztBkBxd1YrZFWCR1tuXZNnjzKJ07NxuvyeKxcyKftP/+uMv7pJK+/sOtlcHvm0qpZ5y5f5VAZtR2RpxO+55YzH4zsCTRHwvU9GuWGOvwbKV+p8Jc3vs3MeVqHwacTjjpKmpaceOHZ81Lue5VvWi4T9RazOdwTmBHRySJV+HbdTDQ1zY6Y/WV1QJ+T1uergH8VVJ+iza7vj+RM8Vs2J/vF83axK8Oivb7RrZn3AN2qZspvjWCumlk7HEJVPNUwoMF3IoQkxQaXgsUpm6UBp3YoEWuUVt06WFRDfiqRgIO4GtNDzjysi9qgRFTrt2GxdLSCxgjPfCr9/loy/O5el2+X3snJR9p+Z6WSDTjrojrhyzuVRlbQszfjdnu9ZZUeSm3+cZtXx4un4jsByFfDbWHEAf/O20qLatew6rtgJPE2oE3s6oOv3YcGon3fZMW0+waOCyFEG9hejaDFuFwXsIeqphoZhHv6uqaqrlZ3I8WnZPS7s7vn23yhBn+qqFljE9/cYJR2bN+/DGwliI7ukTMG73Y9E49hJu1HKlO9lqOfWW89HuylTPI94Web7fbnHBAsWPNojK3QQ9904Yzgf5PlrBTXesIO7f/hqHLQt9PxVcfeDHjivPuraqajQqIUwVQDnW+H3FZayio1fpq58LisXZf+Zj39orO68pWtLVU7j1uEqaVma8bud6YwPOvF4+m4HRetOkRpHv823LOXS43cEloOA3TgtvhY5t2xllTF/Ntkf2FNp+cfs5J4RrOn8vjg+DsTpWsvjqMEj+4tYku8I9AtY7y4dq/1NGfvHSn/z9UzV06amf06P6H71x//4xNYoQZ+drE6d0BolHbdonf/o82ZY/fjBoydh9acTipvG9vddNuBPQlYtU7lA1Mcc8Q3RFiLD/HFo2DovxPxGTWPBgke7LjB+KGpqgezsThyxVykg1pddlXRF5jYs9PzjSoPfGVnBTFVWchX+mReztqjJd1+o5/PA0WSiLfmxrFyU/edX3594UACpsreQwaM/07l9z6G+u7vmlmPYDiFXlnx6fEagaQJPn830bmOvVkN1Zc0N2u+eOH2hd2fvVOuitiNV1HQdkZ7xmhqUjj1mR9t92XO5/EE7Pg7Eac83eGR/EUvyHYF+Ad/bTCeadNJJ23HVwU74a9+gY/6Tp8+zk+oEs/Uu07zirq5Vgj4tm+7Rof2Q5pkKKKqkk13IDv9RtZ535+6DsPa7XYV/6qSB8kgNT8of5bOOLWVlSscm69kSB6LKDutBovR0oyN/V/9h2dX0mGBBgkffrFvl4tG4P7JlXpUC4sfRDkE3yVmM+acqDf5MWBz4WkHJVfjH9hwqbvwzffte302GNJ0e06F1UQHkmkeTnHv3eR4HXGX/zaXw8ZNunS9jey1k8KgybM+WVPo6q6XHhfhBOyLbsWmH9HDInYNzZcmnyWcEmigwOXW7d7dpHeTVmyM+8Gr70Hakfa22qfiRO7bed+8/Ct+s3/5p/zlWVPzev39vfxfHh+ImBJ/SifchvRE/ffgcwSP7i1id7wgMCvhWJO0Dcs/GVj3w+KnzxWPcfCq+FVDHXAWFft+g7VDHZQUGVi/Q/sHqpJZWLuhTzwcto+oWdmxXOmq51DLFQy6deDy+9wvk6nnKS52MVL5u232wd6xQI9aNm7f7E/n0Tfli19Pq2KJuzXFdTfNTedKxSfmpBiPlczz4tDSeHg83ffvuQPlROVGjkI5nSltD02OCBQkebYMQnr8eJYb23+0sjw+WcgXET6fPvi+wIv/FmH8qePRBatzl1pYxV+G3M9QyypwG/jAAABYzSURBVN3WXWdCcjcDsvS7+F5WLsr+i61UOdWNLZQHei1k8Kh5xTsSzcNux23PKdVvOjN5/uL1ePEGvufK0sCI/IBAAwX0zFttH7Y96kCuIFC3rbez9/afWvPtoJtaVV9J1DRz+9jtvVZL/R4/WiqV1ucIHjVf9hcpfX5DoF9A97dQfcv2BXrX/sEeb+H3FXH3cQWBukzF7mhf7BvU6+jTfsb/rv2P7uYfn8TS0vg6pl+O+LPSU/CpumJqqJpOvB6ptLr0m6/nxebxd51gGPbcdLVCWwBp06uOpjLlj0n6T9etlvWO0X58q6tXapq5489Y7xn1+t3fjb/pMcGCBI+pQHBYwfYbkXVF8gWk7Oyw786gjLZM8IFo3fmngkelqeBYOxmdaUoNuQr/xJXJYgeoaa2w2rt+05mqsgKamldXfisrF2X/pXx8V5aFDh41Px00dHt+f0CL81ldK6oMubJUZVrGQaAJArMvX4W9B44ntxdtNzqTe+X61MCZ3NS6af8ZVzJt29NxQt3eUhXDOK3PFTxqvuwvYn2+IzAooO1EQaB1IbTt2t6tDpVrbVIwoZvY6AS9TWPvNm1Z/cvXV206e9exXvsdtVRpf1Y2lKVj6emd4LFf0dfzvJM+K09VLnQcUS+UqoNaLc+cu5wtUx+PGePZEwF+PkpLDQI6XsXLZ9/1n661t1btpscE2eDRw/B54QRUedEdAtVtSy99rlKhWbglIKXPIWDdKXTL7p/vPSSfPwc682isgA6oeryFrv3WQVWtDerqM59BFQ1tc9r2FAjmHi01n7QXaxr2F4slS7ptE9D2rS6EqohrO1e3RW0/VQbbzlT3unxtiuNyFbQOjBOXqTrHDB23dPzScUzHs2F1/KbGBASPHdgwWEUEEEAAAQQQQAABBBBAoK4AwWNdQaZHAAEEEEAAAQQQQAABBDogQPDYgUxmFRFAAAEEEEAAAQQQQACBugIEj3UFmR4BBBBAAAEEEEAAAQQQ6IAAwWMHMplVRAABBBBAAAEEEEAAAQTqChA81hVkegQQQAABBBBAAAEEEECgAwIEjx3IZFYRAQQQQAABBBBAAAEEEKgrQPBYV5DpEUAAAQQQQAABBBBAAIEOCBA8diCTWUUEEEAAAQQQQAABBBBAoK4AwWNdQaZHAAEEEEAAAQQQQAABBDogQPDYgUxmFRFAAAEEEEAAAQQQQACBugIEj3UFmR4BBBBAAAEEEEAAAQQQ6IAAwWMHMplVRAABBBBAAAEEEEAAAQTqChA81hVkegQQQAABBBBAAAEEEECgAwIEjx3IZFYRAQQQQAABBBBAAAEEEKgrQPBYV5DpP6vAhw8fwuNfnoVzF6+FM+cvFy99fvT4aXj//v3QZdE4GrfK9C9mX4UnvzwLeh82/PbuXfjl6fPipc9+ePP2bZGO0sq9nj6b6Vt+P82zmRdB6z3KYMuu+b16/evQSW1+Wod4+YdNrOWbuDLZy4+zF66Gu/cejpzOsPnwf/sEVNZu3bnfKzvapi9fm6q0zUmD7TldJrTNa9uP9yvpsed+rbt/nUuJTwgggAACbRUgeGxrzrZsvVSpGT9/Jaz8dix8sXJT8jW253B2rd+8eRsOHTsdvlq7LTmt0vx63bYwffteL43tuw8V4+p92HDj5p3w5ZqtxUuf/aBANbfM9rvWS5U9G/w0WubpO3PLZePk3mdnX4X1m/f05nnw2OncqL3f9x/6qTf+0RNne7+Xfbg2OR3WfrerN52ti71v3LovvP71TVkS/NdRAQU3ew8cDytWb8mWnwuXrmd12J6zNOHdu9/D1l0HCte/rNocJi5P5kf+9E/d/evQGTACAggggEBrBAgeW5OV7V0RVWwUAFlQogqnApMdew8HBXYWUOaCvNs/3w+rN+6cm37V5rBqw45i2s1j+8M367cHVbIU/PnAb7kEj1pvBXdVB1UWtT7mNSx4VGuj9/lu+/dBlfOyQYH8ik/z0Pu6zbuL/FAAv2bjzmL+G7burdTqWTYf/mufgE5uaPu18vnNuu1h684DRfnR9qjtUP/pBEpqYHsuPxmkE03+JNmu74+W9lyou39N5RG/IYAAAgi0V4Dgsb1525o1u35jOny55mMLxZ4ffkwGNs9nZouuk/FKT07d7lWkVCk9fup8cnq1hJw+eyncufugl8RCB49x62JvRokP1vKoQFmBoII7BXnDBgV9m8b2F9NYq86w4NGCzZXrxz61nm4JMs8N9x8+DivXby8q+Jt3/BBmXswOjCpPdWVVd1gGBLyAtXJrezw3cXUgsFEwM337blCQGA9sz5uKE2mxi/+ungMKvrW/kbG2VW2zuaHO/jWXJr8jgAACCLRXgOCxvXnbmjXbd/B4URlSF0ldX1d10PU+agVTRUotjanKaFlayyF41PKv3rCjWIcq3UmtIqjWVK2z1r0sePRd3PYe+DGo1VHTyDw3nBy/WIyjbr66tpEBgaoCMy9ehnWbdhflR91WFShWHdieh2/Pvsv6kePjvf2fttncMN/9ay49fkcAAQQQaLcAwWO787cVa2dB3KjdIK2rq1otr1y/ObKFzVfvw4Yq1zzOp+VR67x7/7Gisq3rGFU5zA2qiKuLmoI/TaNphwWPCqgVBMpIgacFhmUtneY6yvrklpnfuyWg63pVboaVy5SKlTu253y31YtXbhS9Dqy10QLDsq7otp8bdf+ayiN+QwABBBBovwDBY/vzuPFreODIqaKyOcqNY3wLh67DUwvbqINVqpY6eJya/rl3XWbZzS/u3n9UjCenazemKwWP1sXNKpe+S+qps5eSZOMXrhT5UfVmHMlE+LGTAi9fvQ7fbvl4UsPKXBUItufh27M/eWTXOVpPBDs5lLKez/41lQ6/IYAAAgh0Q4DgsRv53Oi1tFY9tVbourwbU7eHro/G6d14Y+Lq0PFTIyyX4HH25atei6LuopgLhO1aMo2jyvawlkffxc26xPpurLl5PXz0S69LbO66tZQnvyEgAWtB1Pacu2Y2lmJ7Hr4924kff1LHb+O5m27NZ/8a5w/fEUAAAQS6I0Dw2J28buya6oy6ghu7u6dVOstuAmGtY+qSOeq1jgZlweOWnQeyz2dUNzy91CKoQEovf8dWpWU3v1FXsqlbPyfT0g1m/GDTWFcya0HItb7aHVOt4qj0hgWPlmZspJuYyDg3Ly3n+YvXe8G5xtXdVnWTk1GuYfPry+fuCCig0TalcqOXbux08Oip0jvzsj0P357VU0Ceuk762fO5a8MtWM91RZ/P/rU7pZU1RQABBBCIBQgeYxG+L0sBVXAuXf1rr8VLlSQFSqqEPnr8dGCZrcJU57o8Cx6tklvlvSx4LJtey+uHOHjUXVTtZjapFgSrOFpXwGHBozzt+sgtO37oa820QFTLay2Sftnss4JyBY1+vXRd5nyDdUuX9/YLqDyrzNsdgVWGtO3oWaypx8SwPZcHj37/EN/syh7dYSeWUqVr1P1rKg1+QwABBBDohgDBYzfyuTVrqUrS0RPjvcdvqNKpCuhPZyb6Wr0WsrKp9NVdtuyl1jurAOdaHlV5011QU+n8ePJcXx7FwaP+VOuL0rCbYdgEPlC06xT9b3FgqukeP3nau3GJTWPp6d0Cy2E36Xn//n04c+5yLy0ZaBl/OHIy/PbunU+SzwgMCOjEz/Y9h4oyo7Kjl1rI4hMQbM/lwaN1PU1d26jH5diJp1xXdMuYqvtXG593BBBAAIHuCRA8di/PW7HGCo7U1c1aLhSwHD4+3ls3BWOqiOoB5Pce5J9x1psg8cFaHvU+bJirvJV0W/12rOiyOiwt/Z8KHv31S75F0J7T6LulDQseraUyDkRt2a5O3ixs5ao7OA4bFCjqTq3q6mpBgALQ3PWZw9Lj/24JqAu6rn+0sqOTMeribQPbc3nwaNc750722F2U4y7q5hu/D9u/xuPzHQEEEECgOwIEj93J61au6f2HT3rPjfOB0IVL14uKaNXgJ4Wz3IJHLaOCRlWwrZLob3Dju7OWBY++JcIq62XvdufGlFH828yL2V4QkGoFicfnOwImoK6Tut5W3VdVHn0rGdtzPnjU9Y32PNuy7dj+8yeezD73ntu/5sbndwQQQACB9gsQPLY/j1u/hnqGowIVVY7sYdhqbVSro34bJfjxWMsxeIzvqGjXM6lF4dad+73FLwsebRqrTA5790F5bwYlH+yRIUo3vv6qZDL+QqDoev79oRPFdut7DbA954NH63kwbDu2/+3EU9Xiltq/Vp2W8RBAAAEE2idA8Ni+PO3cGqUePO5b5NSVUs9KHHVYjsGjWmd27z/Wa5mxh4DHAXJZ8Ghd3Hw315SNDzJT10WmptFvft5Vuvzm0uH3bgpYl21/8ym253Tw6F3sZlm5UmNB5qg9AlL719w8+B0BBBBAoP0CBI/tz+PGr6G6QpYNPsjRTWVsUMBo1+Ct27Q7PHoyeFdWGzf1vhyDRy2nra8q12qdSVUGfQDnb5jjr5tUwFk2+Ds4+orpi9lXfTcnitPwd2vVA8gZEDABXRurslk2WNdstXj7bZbteW9x0shvz9YTQa2K8U23YmO/XfqTTfPdv8bp8x0BBBBAoBsCBI/dyOdGr+XYnkNh2+6DYfr2vaC7e/pBd2v8dsvHSlXcvVKtdHaXRlWuFEiqW2t8F1ClqbR110d/k47lGjz61gatlw/szCYXPFrrg240pJviDBvsRhuyU9CqQY9T2LhtX7g2OT1gOfvyVdi262BRyU0FtcPmx//tFlAr1trvdhXbpYIZP2h7Vfm0Ez7+mkeNx/Y8GDxaoO27+HrT+LP1VPC9Dua7f43T5jsCCCCAQDcECB67kc+NXksL4hQo+cdm2OMxit9XbQ7j5+daHW2FVeE89tPZ3l1ZNa5uomOPzNC7vut3301O09t89T5sqHK3Vc2j7OVbFKzr3oate5MtNRYEKr1Ul9JU8CgLBciapup1T75lw27I4wPyFZ8eHaLHj3hLzUPjaZ4MCJiA7wKpMvL12m29R9fYjXL0++oNO8KDR09sst472/PH7UogfhuPA+0eWPTh+o3p3vXhtt+w/ZzcR92/RsnzFQEEEECgAwIEjx3I5Kav4sSVySLYsSBPlRx76Te1vMXPhYvX+c7dB0UwqGDHpvXvCkTVoua71FmlajkGj9b9dN3m3eH5zGC3Xl+xtKA0FQjGTvF3H3Dqjo66s6NaZ2Wes9QyXbk+ReAYY/I9qCv04R/PFM8q9duffVYAuffA8aAW7LKB7TmEVCBYZqb//H6h6LHw9m1YiP3rsPnyPwIIIIBAewQIHtuTl61fE3U3VVe3yanbxUuf4y6owxDURfXps5li+svXpornLvqAcdj0/D8nYJbqzmqWegwIAwJVBLTd6ZrGS1dvhJ/vPQzPZl6MfMLByqD2CVYG2Z6r6A+OsxD718FU+QUBBBBAoG0CBI9ty1HWBwEEEEAAAQQQQAABBBBYBAGCx0VAJUkEEEAAAQQQQAABBBBAoG0CBI9ty1HWBwEEEEAAAQQQQAABBBBYBAGCx0VAJUkEEEAAAQQQQAABBBBAoG0CBI9ty1HWBwEEEEAAAQQQQAABBBBYBAGCx0VAJUkEEEAAAQQQQAABBBBAoG0CBI9ty1HWBwEEEEAAAQQQQAABBBBYBAGCx0VAJUkEEEAAAQQQQAABBBBAoG0CBI9ty1HWBwEEEEAAAQQQQAABBBBYBAGCx0VAJUkEEEAAAQQQQAABBBBAoG0CBI9ty1HWBwEEEEAAAQQQQAABBBBYBAGCx0VAJUkEEEAAAQQQQAABBBBAoG0CBI9ty1HWBwEEEEAAAQQQQAABBBBYBAGCx0VAJUkEEEAAAQQQQAABBBBAoG0CBI9ty1HWBwEEEEAAAQQQQAABBBBYBAGCx0VAJUkEEEAAAQQQQAABBBBAoG0CBI9ty1HWBwEEEEAAAQQQQAABBBBYBAGCx0VAJUkEEEAAAQQQQAABBBBAoG0CBI9ty1HWBwEEEEAAAQQQQAABBBBYBAGCx0VAJUkEEEAAAQQQQAABBBBAoG0CBI9ty1HWBwEEEEAAAQQQQAABBBBYBAGCx0VAJUkEEEAAAQQQQAABBBBAoG0CBI9ty1HWBwEEEEAAAQQQQAABBBBYBAGCx0VAJUkEEEAAAQQQQAABBBBAoG0CBI9ty1HWBwEEEEAAAQQQQAABBBBYBAGCx0VAJUkEEEAAgUGB/7DqVeCFAWUgXQYGtxh+QQABBJafAMHj8ssTlggBBBBopQBBQzpowAUXlQEGBBBAoAkCBI9NyCWWEQEEEGiBAEESQRJlIF8GWrCJswoIINABAYLHDmQyq4gAAggggAACCCCAAAII1BUgeKwryPQIIIAAAggggAACCCCAQAcECB47kMmsIgIIIIAAAggggAACCCBQV4Dgsa4g0yOAAAIIIIAAAggggAACHRAgeOxAJrOKCCCAAAIIIIAAAggggEBdAYLHuoJMjwACCCCAAAIIIIAAAgh0QIDgsQOZzCoigAACCCCAAAIIIIAAAnUFCB7rCjI9AggggAACCCCAAAIIINABAYLHDmQyq4gAAggggAACCCCAAAII1BUgeKwryPQIIIAAAggggAACCCCAQAcECB47kMmsIgIIIIAAAggggAACCCBQV4Dgsa4g0yOAAAIIIIAAAggggAACHRAgeOxAJrOKCCCAAAIIIIAAAggggEBdAYLHuoJMjwACCCCAAAIIIIAAAgh0QIDgsQOZzCoigAACCCCAAAIIIIAAAnUFCB7rCjI9AggggAACCCCAAAIIINABAYLHDmQyq4gAAggggAACCCCAAAII1BUgeKwryPQIIIAAAggggAACCCCAQAcECB47kMmsIgIIIIAAAggggAACCCBQV4Dgsa4g0yOAAAIIIIAAAggggAACHRAgeOxAJrOKCCCAAAIIIIAAAggggEBdAYLHuoJMjwACCCCAAAIIIIAAAgh0QIDgsQOZzCoigAACCCCAAAIIIIAAAnUFCB7rCjI9AggggAACCCCAAAIIINABAYLHDmQyq4gAAggggAACCCCAAAII1BUgeKwryPQIIIAAAggggAACCCCAQAcECB47kMmsIgIIIIAAAggggAACCCBQV4Dgsa4g0yOAAAIIIIAAAggggAACHRAgeOxAJrOKCCCAAAIIIIAAAggggEBdAYLHuoJMjwACCCCAAAIIIIAAAgh0QIDgsQOZzCoigAACCCCAAAIIIIAAAnUFCB7rCjI9AggggAACCCCAAAIIINABAYLHDmQyq4gAAggggAACCCCAAAII1BUgeKwryPQIIIAAAggggAACCCCAQAcECB47kMmsIgIIIIAAAggggAACCCBQV4Dgsa4g0yOAAAIIIIAAAggggAACHRAgeOxAJrOKCCCAAAIIIIAAAggggEBdAYLHuoJMjwACCCCAAAIIIIAAAgh0QIDgsQOZzCoigAACCCCAAAIIIIAAAnUFCB7rCjI9AggggAACCCCAAAIIINABAYLHDmQyq4gAAggggAACCCCAAAII1BUgeKwryPQIIIAAAggggAACCCCAQAcECB47kMmsIgIIIIAAAggggAACCCBQV+DfAQoIRcsZSGeoAAAAAElFTkSuQmCC;" vertex="1" parent="1">
          <mxGeometry x="70" y="75" width="380" height="85.51" as="geometry" />
        </mxCell>
        <mxCell id="HJJHkAVv1ydhezdsSPti-132" value="" style="group" vertex="1" connectable="0" parent="1">
          <mxGeometry x="80" y="170" width="380" height="215" as="geometry" />
        </mxCell>
        <mxCell id="HJJHkAVv1ydhezdsSPti-128" value="" style="triangle;whiteSpace=wrap;html=1;strokeColor=inherit;align=center;verticalAlign=middle;fontFamily=Helvetica;fontSize=16;fontColor=default;startSize=0;fillColor=none;container=0;" vertex="1" parent="HJJHkAVv1ydhezdsSPti-132">
          <mxGeometry x="140" y="190" width="16" height="35" as="geometry" />
        </mxCell>
        <mxCell id="HJJHkAVv1ydhezdsSPti-131" value="" style="shape=partialRectangle;whiteSpace=wrap;html=1;bottom=0;top=0;fillColor=none;strokeColor=inherit;align=center;verticalAlign=middle;fontFamily=Helvetica;fontSize=16;fontColor=default;startSize=0;" vertex="1" parent="HJJHkAVv1ydhezdsSPti-132">
          <mxGeometry x="30" y="80" width="10" height="40" as="geometry" />
        </mxCell>
        <mxCell id="HJJHkAVv1ydhezdsSPti-139" value="" style="triangle;whiteSpace=wrap;html=1;strokeColor=inherit;align=center;verticalAlign=middle;fontFamily=Helvetica;fontSize=16;fontColor=default;startSize=0;fillColor=none;" vertex="1" parent="HJJHkAVv1ydhezdsSPti-132">
          <mxGeometry x="60" y="80" width="20" height="40" as="geometry" />
        </mxCell>
        <mxCell id="HJJHkAVv1ydhezdsSPti-38" value="" style="shape=table;html=1;whiteSpace=wrap;startSize=0;container=1;collapsible=0;childLayout=tableLayout;columnLines=0;rowLines=0;fontSize=16;strokeColor=default;" vertex="1" parent="HJJHkAVv1ydhezdsSPti-132">
          <mxGeometry x="-10" y="40" width="380" height="169.5" as="geometry" />
        </mxCell>
        <mxCell id="HJJHkAVv1ydhezdsSPti-51" value="" style="shape=tableRow;horizontal=0;startSize=0;swimlaneHead=0;swimlaneBody=0;top=0;left=0;bottom=0;right=0;collapsible=0;dropTarget=0;fillColor=none;points=[[0,0.5],[1,0.5]];portConstraint=eastwest;fontSize=16;strokeColor=inherit;" vertex="1" parent="HJJHkAVv1ydhezdsSPti-38">
          <mxGeometry width="380" height="52" as="geometry" />
        </mxCell>
        <mxCell id="HJJHkAVv1ydhezdsSPti-53" value="action" style="shape=partialRectangle;html=1;whiteSpace=wrap;connectable=0;fillColor=none;top=0;left=0;bottom=0;right=0;overflow=hidden;fontSize=12;strokeColor=inherit;" vertex="1" parent="HJJHkAVv1ydhezdsSPti-51">
          <mxGeometry width="95" height="52" as="geometry">
            <mxRectangle width="95" height="52" as="alternateBounds" />
          </mxGeometry>
        </mxCell>
        <mxCell id="HJJHkAVv1ydhezdsSPti-52" value="id&lt;span style=&quot;white-space: pre;&quot;&gt;&#x9;&lt;/span&gt;" style="shape=partialRectangle;html=1;whiteSpace=wrap;connectable=0;fillColor=none;top=0;left=0;bottom=0;right=0;overflow=hidden;fontSize=12;strokeColor=inherit;" vertex="1" parent="HJJHkAVv1ydhezdsSPti-51">
          <mxGeometry x="95" width="95" height="52" as="geometry">
            <mxRectangle width="95" height="52" as="alternateBounds" />
          </mxGeometry>
        </mxCell>
        <mxCell id="HJJHkAVv1ydhezdsSPti-116" value="name" style="shape=partialRectangle;html=1;whiteSpace=wrap;connectable=0;fillColor=none;top=0;left=0;bottom=0;right=0;overflow=hidden;fontSize=12;strokeColor=inherit;" vertex="1" parent="HJJHkAVv1ydhezdsSPti-51">
          <mxGeometry x="190" width="95" height="52" as="geometry">
            <mxRectangle width="95" height="52" as="alternateBounds" />
          </mxGeometry>
        </mxCell>
        <mxCell id="HJJHkAVv1ydhezdsSPti-121" value="schema" style="shape=partialRectangle;html=1;whiteSpace=wrap;connectable=0;fillColor=none;top=0;left=0;bottom=0;right=0;overflow=hidden;fontSize=12;strokeColor=inherit;" vertex="1" parent="HJJHkAVv1ydhezdsSPti-51">
          <mxGeometry x="285" width="95" height="52" as="geometry">
            <mxRectangle width="95" height="52" as="alternateBounds" />
          </mxGeometry>
        </mxCell>
        <mxCell id="HJJHkAVv1ydhezdsSPti-94" value="" style="shape=tableRow;horizontal=0;startSize=0;swimlaneHead=0;swimlaneBody=0;top=0;left=0;bottom=0;right=0;collapsible=0;dropTarget=0;fillColor=none;points=[[0,0.5],[1,0.5]];portConstraint=eastwest;fontSize=16;strokeColor=inherit;flipH=0;flipV=1;" vertex="1" parent="HJJHkAVv1ydhezdsSPti-38">
          <mxGeometry y="52" width="380" height="20" as="geometry" />
        </mxCell>
        <mxCell id="HJJHkAVv1ydhezdsSPti-95" value="" style="shape=partialRectangle;html=1;whiteSpace=wrap;connectable=0;fillColor=none;top=0;left=0;bottom=0;right=0;overflow=hidden;fontSize=12;strokeColor=inherit;" vertex="1" parent="HJJHkAVv1ydhezdsSPti-94">
          <mxGeometry width="95" height="20" as="geometry">
            <mxRectangle width="95" height="20" as="alternateBounds" />
          </mxGeometry>
        </mxCell>
        <mxCell id="HJJHkAVv1ydhezdsSPti-96" value="1&lt;span style=&quot;white-space: pre;&quot;&gt;&#x9;&lt;/span&gt;" style="shape=partialRectangle;html=1;whiteSpace=wrap;connectable=0;fillColor=none;top=0;left=0;bottom=0;right=0;overflow=hidden;fontSize=12;strokeColor=inherit;" vertex="1" parent="HJJHkAVv1ydhezdsSPti-94">
          <mxGeometry x="95" width="95" height="20" as="geometry">
            <mxRectangle width="95" height="20" as="alternateBounds" />
          </mxGeometry>
        </mxCell>
        <mxCell id="HJJHkAVv1ydhezdsSPti-117" value="one" style="shape=partialRectangle;html=1;whiteSpace=wrap;connectable=0;fillColor=none;top=0;left=0;bottom=0;right=0;overflow=hidden;fontSize=12;strokeColor=inherit;" vertex="1" parent="HJJHkAVv1ydhezdsSPti-94">
          <mxGeometry x="190" width="95" height="20" as="geometry">
            <mxRectangle width="95" height="20" as="alternateBounds" />
          </mxGeometry>
        </mxCell>
        <mxCell id="HJJHkAVv1ydhezdsSPti-122" value="{a: 1}" style="shape=partialRectangle;html=1;whiteSpace=wrap;connectable=0;fillColor=none;top=0;left=0;bottom=0;right=0;overflow=hidden;fontSize=12;strokeColor=inherit;" vertex="1" parent="HJJHkAVv1ydhezdsSPti-94">
          <mxGeometry x="285" width="95" height="20" as="geometry">
            <mxRectangle width="95" height="20" as="alternateBounds" />
          </mxGeometry>
        </mxCell>
        <mxCell id="HJJHkAVv1ydhezdsSPti-47" value="" style="shape=tableRow;horizontal=0;startSize=0;swimlaneHead=0;swimlaneBody=0;top=0;left=0;bottom=0;right=0;collapsible=0;dropTarget=0;fillColor=none;points=[[0,0.5],[1,0.5]];portConstraint=eastwest;fontSize=16;strokeColor=inherit;" vertex="1" parent="HJJHkAVv1ydhezdsSPti-38">
          <mxGeometry y="72" width="380" height="98" as="geometry" />
        </mxCell>
        <mxCell id="HJJHkAVv1ydhezdsSPti-48" value="" style="shape=partialRectangle;html=1;whiteSpace=wrap;connectable=0;fillColor=none;top=0;left=0;bottom=0;right=0;overflow=hidden;fontSize=12;strokeColor=inherit;" vertex="1" parent="HJJHkAVv1ydhezdsSPti-47">
          <mxGeometry width="95" height="98" as="geometry">
            <mxRectangle width="95" height="98" as="alternateBounds" />
          </mxGeometry>
        </mxCell>
        <mxCell id="HJJHkAVv1ydhezdsSPti-49" value="" style="shape=partialRectangle;html=1;whiteSpace=wrap;connectable=0;fillColor=none;top=0;left=0;bottom=0;right=0;overflow=hidden;fontSize=12;strokeColor=inherit;" vertex="1" parent="HJJHkAVv1ydhezdsSPti-47">
          <mxGeometry x="95" width="95" height="98" as="geometry">
            <mxRectangle width="95" height="98" as="alternateBounds" />
          </mxGeometry>
        </mxCell>
        <mxCell id="HJJHkAVv1ydhezdsSPti-120" style="shape=partialRectangle;html=1;whiteSpace=wrap;connectable=0;fillColor=none;top=0;left=0;bottom=0;right=0;overflow=hidden;fontSize=12;strokeColor=inherit;" vertex="1" parent="HJJHkAVv1ydhezdsSPti-47">
          <mxGeometry x="190" width="95" height="98" as="geometry">
            <mxRectangle width="95" height="98" as="alternateBounds" />
          </mxGeometry>
        </mxCell>
        <mxCell id="HJJHkAVv1ydhezdsSPti-125" style="shape=partialRectangle;html=1;whiteSpace=wrap;connectable=0;fillColor=none;top=0;left=0;bottom=0;right=0;overflow=hidden;fontSize=12;strokeColor=inherit;" vertex="1" parent="HJJHkAVv1ydhezdsSPti-47">
          <mxGeometry x="285" width="95" height="98" as="geometry">
            <mxRectangle width="95" height="98" as="alternateBounds" />
          </mxGeometry>
        </mxCell>
        <mxCell id="HJJHkAVv1ydhezdsSPti-196" value="" style="whiteSpace=wrap;html=1;verticalAlign=top;labelBackgroundColor=default;" vertex="1" parent="HJJHkAVv1ydhezdsSPti-47">
          <mxGeometry x="380" width="NaN" height="98" as="geometry">
            <mxRectangle width="NaN" height="98" as="alternateBounds" />
          </mxGeometry>
        </mxCell>
        <mxCell id="HJJHkAVv1ydhezdsSPti-200" value="" style="whiteSpace=wrap;html=1;fontSize=16;fillColor=none;startSize=0;" vertex="1" parent="HJJHkAVv1ydhezdsSPti-47">
          <mxGeometry width="NaN" height="98" as="geometry">
            <mxRectangle width="NaN" height="98" as="alternateBounds" />
          </mxGeometry>
        </mxCell>
        <mxCell id="HJJHkAVv1ydhezdsSPti-140" value="" style="shape=partialRectangle;whiteSpace=wrap;html=1;bottom=0;top=0;fillColor=none;strokeColor=inherit;align=center;verticalAlign=middle;fontFamily=Helvetica;fontSize=16;fontColor=default;startSize=0;" vertex="1" parent="HJJHkAVv1ydhezdsSPti-132">
          <mxGeometry x="30" y="80" width="10" height="30" as="geometry" />
        </mxCell>
        <mxCell id="HJJHkAVv1ydhezdsSPti-188" value="" style="rounded=0;whiteSpace=wrap;html=1;strokeColor=inherit;align=center;verticalAlign=middle;fontFamily=Helvetica;fontSize=16;fontColor=default;startSize=0;fillColor=none;" vertex="1" parent="HJJHkAVv1ydhezdsSPti-132">
          <mxGeometry x="180" y="104.38" width="90" height="30" as="geometry" />
        </mxCell>
        <mxCell id="HJJHkAVv1ydhezdsSPti-197" value="" style="edgeStyle=orthogonalEdgeStyle;rounded=0;orthogonalLoop=1;jettySize=auto;html=1;fontFamily=Helvetica;fontSize=16;fontColor=default;startSize=0;" edge="1" parent="HJJHkAVv1ydhezdsSPti-132" source="HJJHkAVv1ydhezdsSPti-192" target="HJJHkAVv1ydhezdsSPti-196">
          <mxGeometry relative="1" as="geometry" />
        </mxCell>
        <mxCell id="HJJHkAVv1ydhezdsSPti-192" value="" style="shape=image;verticalLabelPosition=bottom;labelBackgroundColor=default;verticalAlign=top;aspect=fixed;imageAspect=0;image=data:image/png,iVBORw0KGgoAAAANSUhEUgAAAEkAAAAoCAYAAACy29cjAAABaklEQVRoBe3YQUsCURQFYP9m1CYiF21aBxEE1U4oi6J2kmS2cSW4DKFFP0CoaGcNQeoiKXScuPEEd+E9vOZeEs7ArN55Mu+b4/jGgvBQBQpqggEhElACIhEJEAAibBKRAAEgwiYRCRAAImzSf0GapJlcX7Zls3gua0tHuZ3FlWMpHTTktdsDlhofcWnSTbWdG8xvyAE/y77jFZSZLkj7O3VTpAD3lgyUpcYPuyCdHTZNkdaXy/L1OY5XUGa6IPXeP2R368oEamP1VO7vHpVl/m3YBWl2ieEB+9Dp5nY+PyUSfhSsD1ck68VYfT6RAFkiEQkQACKuTeKDe84dGfSH3ALM8ZkOXZy0TPZIs1eUsJkcjVLtMqLHXb5ue9s1U6SAlbz0oxG0iS5ItcqtKVJ4wbXcVLogpfyrRCvr4o+7NGnRmYgE3EEiEQkQACJsEpEAASDCJhEJEAAibBKRAAEgwiYRCRAAImwSgPQDwtnPIFkmfLsAAAAASUVORK5CYII=;" vertex="1" parent="HJJHkAVv1ydhezdsSPti-132">
          <mxGeometry x="1.22" y="114.38" width="38.78" height="21.25" as="geometry" />
        </mxCell>
        <mxCell id="HJJHkAVv1ydhezdsSPti-201" value="" style="edgeStyle=orthogonalEdgeStyle;rounded=0;orthogonalLoop=1;jettySize=auto;html=1;fontFamily=Helvetica;fontSize=16;fontColor=default;startSize=0;" edge="1" parent="HJJHkAVv1ydhezdsSPti-132" source="HJJHkAVv1ydhezdsSPti-193" target="HJJHkAVv1ydhezdsSPti-200">
          <mxGeometry relative="1" as="geometry" />
        </mxCell>
        <mxCell id="HJJHkAVv1ydhezdsSPti-193" value="" style="triangle;whiteSpace=wrap;html=1;strokeColor=default;align=center;verticalAlign=middle;fontFamily=Helvetica;fontSize=16;fontColor=default;startSize=0;fillColor=none;" vertex="1" parent="HJJHkAVv1ydhezdsSPti-132">
          <mxGeometry x="50" y="114.38" width="10" height="20" as="geometry" />
        </mxCell>
        <mxCell id="HJJHkAVv1ydhezdsSPti-160" value="" style="endArrow=classic;html=1;rounded=0;fontFamily=Helvetica;fontSize=16;fontColor=default;startSize=0;exitX=0.434;exitY=1.01;exitDx=0;exitDy=0;exitPerimeter=0;entryX=0.5;entryY=0;entryDx=0;entryDy=0;" edge="1" parent="1" source="HJJHkAVv1ydhezdsSPti-47" target="HJJHkAVv1ydhezdsSPti-143">
          <mxGeometry width="50" height="50" relative="1" as="geometry">
            <mxPoint x="350" y="450" as="sourcePoint" />
            <mxPoint x="400" y="400" as="targetPoint" />
          </mxGeometry>
        </mxCell>
        <mxCell id="HJJHkAVv1ydhezdsSPti-161" value="" style="group" vertex="1" connectable="0" parent="1">
          <mxGeometry x="660" y="150" width="380" height="215" as="geometry" />
        </mxCell>
        <mxCell id="HJJHkAVv1ydhezdsSPti-162" value="" style="triangle;whiteSpace=wrap;html=1;strokeColor=inherit;align=center;verticalAlign=middle;fontFamily=Helvetica;fontSize=16;fontColor=default;startSize=0;fillColor=none;container=0;" vertex="1" parent="HJJHkAVv1ydhezdsSPti-161">
          <mxGeometry x="140" y="190" width="16" height="35" as="geometry" />
        </mxCell>
        <mxCell id="HJJHkAVv1ydhezdsSPti-163" value="" style="shape=partialRectangle;whiteSpace=wrap;html=1;bottom=0;top=0;fillColor=none;strokeColor=inherit;align=center;verticalAlign=middle;fontFamily=Helvetica;fontSize=16;fontColor=default;startSize=0;" vertex="1" parent="HJJHkAVv1ydhezdsSPti-161">
          <mxGeometry x="30" y="80" width="10" height="40" as="geometry" />
        </mxCell>
        <mxCell id="HJJHkAVv1ydhezdsSPti-164" value="" style="triangle;whiteSpace=wrap;html=1;strokeColor=inherit;align=center;verticalAlign=middle;fontFamily=Helvetica;fontSize=16;fontColor=default;startSize=0;fillColor=none;" vertex="1" parent="HJJHkAVv1ydhezdsSPti-161">
          <mxGeometry x="60" y="80" width="20" height="40" as="geometry" />
        </mxCell>
        <mxCell id="HJJHkAVv1ydhezdsSPti-165" value="" style="shape=table;html=1;whiteSpace=wrap;startSize=0;container=1;collapsible=0;childLayout=tableLayout;columnLines=0;rowLines=0;fontSize=16;strokeColor=default;fillColor=default;" vertex="1" parent="HJJHkAVv1ydhezdsSPti-161">
          <mxGeometry x="-10" y="7.5" width="380" height="202.5" as="geometry" />
        </mxCell>
        <mxCell id="HJJHkAVv1ydhezdsSPti-166" value="" style="shape=tableRow;horizontal=0;startSize=0;swimlaneHead=0;swimlaneBody=0;top=0;left=0;bottom=0;right=0;collapsible=0;dropTarget=0;fillColor=none;points=[[0,0.5],[1,0.5]];portConstraint=eastwest;fontSize=16;strokeColor=inherit;" vertex="1" parent="HJJHkAVv1ydhezdsSPti-165">
          <mxGeometry width="380" height="79" as="geometry" />
        </mxCell>
        <mxCell id="HJJHkAVv1ydhezdsSPti-167" value="action" style="shape=partialRectangle;html=1;whiteSpace=wrap;connectable=0;fillColor=none;top=0;left=0;bottom=0;right=0;overflow=hidden;fontSize=12;strokeColor=inherit;" vertex="1" parent="HJJHkAVv1ydhezdsSPti-166">
          <mxGeometry width="95" height="79" as="geometry">
            <mxRectangle width="95" height="79" as="alternateBounds" />
          </mxGeometry>
        </mxCell>
        <mxCell id="HJJHkAVv1ydhezdsSPti-168" value="id&lt;span style=&quot;white-space: pre;&quot;&gt;&#x9;&lt;/span&gt;" style="shape=partialRectangle;html=1;whiteSpace=wrap;connectable=0;fillColor=none;top=0;left=0;bottom=0;right=0;overflow=hidden;fontSize=12;strokeColor=inherit;" vertex="1" parent="HJJHkAVv1ydhezdsSPti-166">
          <mxGeometry x="95" width="95" height="79" as="geometry">
            <mxRectangle width="95" height="79" as="alternateBounds" />
          </mxGeometry>
        </mxCell>
        <mxCell id="HJJHkAVv1ydhezdsSPti-169" value="name" style="shape=partialRectangle;html=1;whiteSpace=wrap;connectable=0;fillColor=none;top=0;left=0;bottom=0;right=0;overflow=hidden;fontSize=12;strokeColor=inherit;" vertex="1" parent="HJJHkAVv1ydhezdsSPti-166">
          <mxGeometry x="190" width="95" height="79" as="geometry">
            <mxRectangle width="95" height="79" as="alternateBounds" />
          </mxGeometry>
        </mxCell>
        <mxCell id="HJJHkAVv1ydhezdsSPti-170" value="schema" style="shape=partialRectangle;html=1;whiteSpace=wrap;connectable=0;fillColor=none;top=0;left=0;bottom=0;right=0;overflow=hidden;fontSize=12;strokeColor=inherit;" vertex="1" parent="HJJHkAVv1ydhezdsSPti-166">
          <mxGeometry x="285" width="95" height="79" as="geometry">
            <mxRectangle width="95" height="79" as="alternateBounds" />
          </mxGeometry>
        </mxCell>
        <mxCell id="HJJHkAVv1ydhezdsSPti-171" value="" style="shape=tableRow;horizontal=0;startSize=0;swimlaneHead=0;swimlaneBody=0;top=0;left=0;bottom=0;right=0;collapsible=0;dropTarget=0;fillColor=none;points=[[0,0.5],[1,0.5]];portConstraint=eastwest;fontSize=16;strokeColor=inherit;flipH=0;flipV=1;" vertex="1" parent="HJJHkAVv1ydhezdsSPti-165">
          <mxGeometry y="79" width="380" height="78" as="geometry" />
        </mxCell>
        <mxCell id="HJJHkAVv1ydhezdsSPti-172" value="drag icon | expand icon" style="shape=partialRectangle;html=1;whiteSpace=wrap;connectable=0;fillColor=none;top=0;left=0;bottom=0;right=0;overflow=hidden;fontSize=12;strokeColor=inherit;" vertex="1" parent="HJJHkAVv1ydhezdsSPti-171">
          <mxGeometry width="95" height="78" as="geometry">
            <mxRectangle width="95" height="78" as="alternateBounds" />
          </mxGeometry>
        </mxCell>
        <mxCell id="HJJHkAVv1ydhezdsSPti-173" value="1&lt;span style=&quot;white-space: pre;&quot;&gt;&#x9;&lt;/span&gt;" style="shape=partialRectangle;html=1;whiteSpace=wrap;connectable=0;fillColor=none;top=0;left=0;bottom=0;right=0;overflow=hidden;fontSize=12;strokeColor=inherit;" vertex="1" parent="HJJHkAVv1ydhezdsSPti-171">
          <mxGeometry x="95" width="95" height="78" as="geometry">
            <mxRectangle width="95" height="78" as="alternateBounds" />
          </mxGeometry>
        </mxCell>
        <mxCell id="HJJHkAVv1ydhezdsSPti-174" value="" style="shape=partialRectangle;html=1;whiteSpace=wrap;connectable=0;fillColor=none;top=0;left=0;bottom=0;right=0;overflow=hidden;fontSize=12;strokeColor=inherit;" vertex="1" parent="HJJHkAVv1ydhezdsSPti-171">
          <mxGeometry x="190" width="95" height="78" as="geometry">
            <mxRectangle width="95" height="78" as="alternateBounds" />
          </mxGeometry>
        </mxCell>
        <mxCell id="HJJHkAVv1ydhezdsSPti-175" value="{a: 1}" style="shape=partialRectangle;html=1;whiteSpace=wrap;connectable=0;fillColor=none;top=0;left=0;bottom=0;right=0;overflow=hidden;fontSize=12;strokeColor=inherit;" vertex="1" parent="HJJHkAVv1ydhezdsSPti-171">
          <mxGeometry x="285" width="95" height="78" as="geometry">
            <mxRectangle width="95" height="78" as="alternateBounds" />
          </mxGeometry>
        </mxCell>
        <mxCell id="HJJHkAVv1ydhezdsSPti-176" value="" style="shape=tableRow;horizontal=0;startSize=0;swimlaneHead=0;swimlaneBody=0;top=0;left=0;bottom=0;right=0;collapsible=0;dropTarget=0;fillColor=none;points=[[0,0.5],[1,0.5]];portConstraint=eastwest;fontSize=16;strokeColor=inherit;" vertex="1" parent="HJJHkAVv1ydhezdsSPti-165">
          <mxGeometry y="157" width="380" height="46" as="geometry" />
        </mxCell>
        <mxCell id="HJJHkAVv1ydhezdsSPti-177" value="" style="shape=partialRectangle;html=1;whiteSpace=wrap;connectable=0;fillColor=none;top=0;left=0;bottom=0;right=0;overflow=hidden;fontSize=12;strokeColor=inherit;" vertex="1" parent="HJJHkAVv1ydhezdsSPti-176">
          <mxGeometry width="95" height="46" as="geometry">
            <mxRectangle width="95" height="46" as="alternateBounds" />
          </mxGeometry>
        </mxCell>
        <mxCell id="HJJHkAVv1ydhezdsSPti-178" value="" style="shape=partialRectangle;html=1;whiteSpace=wrap;connectable=0;fillColor=none;top=0;left=0;bottom=0;right=0;overflow=hidden;fontSize=12;strokeColor=inherit;" vertex="1" parent="HJJHkAVv1ydhezdsSPti-176">
          <mxGeometry x="95" width="95" height="46" as="geometry">
            <mxRectangle width="95" height="46" as="alternateBounds" />
          </mxGeometry>
        </mxCell>
        <mxCell id="HJJHkAVv1ydhezdsSPti-179" style="shape=partialRectangle;html=1;whiteSpace=wrap;connectable=0;fillColor=none;top=0;left=0;bottom=0;right=0;overflow=hidden;fontSize=12;strokeColor=inherit;" vertex="1" parent="HJJHkAVv1ydhezdsSPti-176">
          <mxGeometry x="190" width="95" height="46" as="geometry">
            <mxRectangle width="95" height="46" as="alternateBounds" />
          </mxGeometry>
        </mxCell>
        <mxCell id="HJJHkAVv1ydhezdsSPti-180" style="shape=partialRectangle;html=1;whiteSpace=wrap;connectable=0;fillColor=none;top=0;left=0;bottom=0;right=0;overflow=hidden;fontSize=12;strokeColor=inherit;" vertex="1" parent="HJJHkAVv1ydhezdsSPti-176">
          <mxGeometry x="285" width="95" height="46" as="geometry">
            <mxRectangle width="95" height="46" as="alternateBounds" />
          </mxGeometry>
        </mxCell>
        <mxCell id="HJJHkAVv1ydhezdsSPti-181" value="" style="shape=partialRectangle;whiteSpace=wrap;html=1;bottom=0;top=0;fillColor=none;strokeColor=inherit;align=center;verticalAlign=middle;fontFamily=Helvetica;fontSize=16;fontColor=default;startSize=0;" vertex="1" parent="HJJHkAVv1ydhezdsSPti-161">
          <mxGeometry x="30" y="80" width="10" height="30" as="geometry" />
        </mxCell>
        <mxCell id="HJJHkAVv1ydhezdsSPti-183" value="edit name" style="rounded=0;whiteSpace=wrap;html=1;strokeColor=default;align=center;verticalAlign=middle;fontFamily=Helvetica;fontSize=16;fontColor=default;startSize=0;fillColor=none;" vertex="1" parent="HJJHkAVv1ydhezdsSPti-161">
          <mxGeometry x="170" y="110" width="100" height="30" as="geometry" />
        </mxCell>
        <mxCell id="HJJHkAVv1ydhezdsSPti-187" value="" style="endArrow=classic;html=1;rounded=0;fontFamily=Helvetica;fontSize=16;fontColor=default;startSize=0;entryX=0.5;entryY=1;entryDx=0;entryDy=0;exitX=0.5;exitY=1;exitDx=0;exitDy=0;startArrow=none;startFill=0;edgeStyle=orthogonalEdgeStyle;" edge="1" parent="1" source="HJJHkAVv1ydhezdsSPti-188" target="HJJHkAVv1ydhezdsSPti-183">
          <mxGeometry width="50" height="50" relative="1" as="geometry">
            <mxPoint x="530" y="390" as="sourcePoint" />
            <mxPoint x="580" y="340" as="targetPoint" />
            <Array as="points">
              <mxPoint x="305" y="310" />
              <mxPoint x="880" y="310" />
            </Array>
          </mxGeometry>
        </mxCell>
        <mxCell id="HJJHkAVv1ydhezdsSPti-191" value="double click to edit name" style="edgeLabel;html=1;align=center;verticalAlign=middle;resizable=0;points=[];fontSize=16;fontFamily=Helvetica;fontColor=default;" vertex="1" connectable="0" parent="HJJHkAVv1ydhezdsSPti-187">
          <mxGeometry x="-0.1782" y="2" relative="1" as="geometry">
            <mxPoint as="offset" />
          </mxGeometry>
        </mxCell>
        <mxCell id="HJJHkAVv1ydhezdsSPti-198" value="drag and drop see here&lt;br&gt;https://tanstack.com/table/latest/docs/framework/react/examples/row-dnd" style="whiteSpace=wrap;html=1;verticalAlign=top;labelBackgroundColor=default;" vertex="1" parent="1">
          <mxGeometry x="-500" y="150.01" width="440" height="60" as="geometry" />
        </mxCell>
        <mxCell id="HJJHkAVv1ydhezdsSPti-199" value="" style="edgeStyle=orthogonalEdgeStyle;rounded=0;orthogonalLoop=1;jettySize=auto;html=1;fontFamily=Helvetica;fontSize=16;fontColor=default;startSize=0;" edge="1" parent="1" source="HJJHkAVv1ydhezdsSPti-192" target="HJJHkAVv1ydhezdsSPti-198">
          <mxGeometry relative="1" as="geometry" />
        </mxCell>
        <mxCell id="HJJHkAVv1ydhezdsSPti-205" value="" style="shape=table;html=1;whiteSpace=wrap;startSize=0;container=1;collapsible=0;childLayout=tableLayout;columnLines=0;rowLines=0;fontSize=16;strokeColor=default;" vertex="1" parent="1">
          <mxGeometry x="-490" y="365" width="380" height="169.5" as="geometry" />
        </mxCell>
        <mxCell id="HJJHkAVv1ydhezdsSPti-206" value="" style="shape=tableRow;horizontal=0;startSize=0;swimlaneHead=0;swimlaneBody=0;top=0;left=0;bottom=0;right=0;collapsible=0;dropTarget=0;fillColor=none;points=[[0,0.5],[1,0.5]];portConstraint=eastwest;fontSize=16;strokeColor=inherit;" vertex="1" parent="HJJHkAVv1ydhezdsSPti-205">
          <mxGeometry width="380" height="52" as="geometry" />
        </mxCell>
        <mxCell id="HJJHkAVv1ydhezdsSPti-207" value="action" style="shape=partialRectangle;html=1;whiteSpace=wrap;connectable=0;fillColor=none;top=0;left=0;bottom=0;right=0;overflow=hidden;fontSize=12;strokeColor=inherit;" vertex="1" parent="HJJHkAVv1ydhezdsSPti-206">
          <mxGeometry width="95" height="52" as="geometry">
            <mxRectangle width="95" height="52" as="alternateBounds" />
          </mxGeometry>
        </mxCell>
        <mxCell id="HJJHkAVv1ydhezdsSPti-208" value="id&lt;span style=&quot;white-space: pre;&quot;&gt;&#x9;&lt;/span&gt;" style="shape=partialRectangle;html=1;whiteSpace=wrap;connectable=0;fillColor=none;top=0;left=0;bottom=0;right=0;overflow=hidden;fontSize=12;strokeColor=inherit;" vertex="1" parent="HJJHkAVv1ydhezdsSPti-206">
          <mxGeometry x="95" width="95" height="52" as="geometry">
            <mxRectangle width="95" height="52" as="alternateBounds" />
          </mxGeometry>
        </mxCell>
        <mxCell id="HJJHkAVv1ydhezdsSPti-209" value="name" style="shape=partialRectangle;html=1;whiteSpace=wrap;connectable=0;fillColor=none;top=0;left=0;bottom=0;right=0;overflow=hidden;fontSize=12;strokeColor=inherit;" vertex="1" parent="HJJHkAVv1ydhezdsSPti-206">
          <mxGeometry x="190" width="95" height="52" as="geometry">
            <mxRectangle width="95" height="52" as="alternateBounds" />
          </mxGeometry>
        </mxCell>
        <mxCell id="HJJHkAVv1ydhezdsSPti-210" value="schema" style="shape=partialRectangle;html=1;whiteSpace=wrap;connectable=0;fillColor=none;top=0;left=0;bottom=0;right=0;overflow=hidden;fontSize=12;strokeColor=inherit;" vertex="1" parent="HJJHkAVv1ydhezdsSPti-206">
          <mxGeometry x="285" width="95" height="52" as="geometry">
            <mxRectangle width="95" height="52" as="alternateBounds" />
          </mxGeometry>
        </mxCell>
        <mxCell id="HJJHkAVv1ydhezdsSPti-211" value="" style="shape=tableRow;horizontal=0;startSize=0;swimlaneHead=0;swimlaneBody=0;top=0;left=0;bottom=0;right=0;collapsible=0;dropTarget=0;fillColor=none;points=[[0,0.5],[1,0.5]];portConstraint=eastwest;fontSize=16;strokeColor=inherit;flipH=0;flipV=1;" vertex="1" parent="HJJHkAVv1ydhezdsSPti-205">
          <mxGeometry y="52" width="380" height="20" as="geometry" />
        </mxCell>
        <mxCell id="HJJHkAVv1ydhezdsSPti-212" value="" style="shape=partialRectangle;html=1;whiteSpace=wrap;connectable=0;fillColor=none;top=0;left=0;bottom=0;right=0;overflow=hidden;fontSize=12;strokeColor=inherit;" vertex="1" parent="HJJHkAVv1ydhezdsSPti-211">
          <mxGeometry width="95" height="20" as="geometry">
            <mxRectangle width="95" height="20" as="alternateBounds" />
          </mxGeometry>
        </mxCell>
        <mxCell id="HJJHkAVv1ydhezdsSPti-213" value="1&lt;span style=&quot;white-space: pre;&quot;&gt;&#x9;&lt;/span&gt;" style="shape=partialRectangle;html=1;whiteSpace=wrap;connectable=0;fillColor=none;top=0;left=0;bottom=0;right=0;overflow=hidden;fontSize=12;strokeColor=inherit;" vertex="1" parent="HJJHkAVv1ydhezdsSPti-211">
          <mxGeometry x="95" width="95" height="20" as="geometry">
            <mxRectangle width="95" height="20" as="alternateBounds" />
          </mxGeometry>
        </mxCell>
        <mxCell id="HJJHkAVv1ydhezdsSPti-214" value="one" style="shape=partialRectangle;html=1;whiteSpace=wrap;connectable=0;fillColor=none;top=0;left=0;bottom=0;right=0;overflow=hidden;fontSize=12;strokeColor=inherit;" vertex="1" parent="HJJHkAVv1ydhezdsSPti-211">
          <mxGeometry x="190" width="95" height="20" as="geometry">
            <mxRectangle width="95" height="20" as="alternateBounds" />
          </mxGeometry>
        </mxCell>
        <mxCell id="HJJHkAVv1ydhezdsSPti-215" value="{a: 1}" style="shape=partialRectangle;html=1;whiteSpace=wrap;connectable=0;fillColor=none;top=0;left=0;bottom=0;right=0;overflow=hidden;fontSize=12;strokeColor=inherit;" vertex="1" parent="HJJHkAVv1ydhezdsSPti-211">
          <mxGeometry x="285" width="95" height="20" as="geometry">
            <mxRectangle width="95" height="20" as="alternateBounds" />
          </mxGeometry>
        </mxCell>
        <mxCell id="HJJHkAVv1ydhezdsSPti-216" value="" style="shape=tableRow;horizontal=0;startSize=0;swimlaneHead=0;swimlaneBody=0;top=0;left=0;bottom=0;right=0;collapsible=0;dropTarget=0;fillColor=none;points=[[0,0.5],[1,0.5]];portConstraint=eastwest;fontSize=16;strokeColor=inherit;" vertex="1" parent="HJJHkAVv1ydhezdsSPti-205">
          <mxGeometry y="72" width="380" height="98" as="geometry" />
        </mxCell>
        <mxCell id="HJJHkAVv1ydhezdsSPti-217" value="" style="shape=partialRectangle;html=1;whiteSpace=wrap;connectable=0;fillColor=none;top=0;left=0;bottom=0;right=0;overflow=hidden;fontSize=12;strokeColor=inherit;" vertex="1" parent="HJJHkAVv1ydhezdsSPti-216">
          <mxGeometry width="95" height="98" as="geometry">
            <mxRectangle width="95" height="98" as="alternateBounds" />
          </mxGeometry>
        </mxCell>
        <mxCell id="HJJHkAVv1ydhezdsSPti-218" value="" style="shape=partialRectangle;html=1;whiteSpace=wrap;connectable=0;fillColor=none;top=0;left=0;bottom=0;right=0;overflow=hidden;fontSize=12;strokeColor=inherit;" vertex="1" parent="HJJHkAVv1ydhezdsSPti-216">
          <mxGeometry x="95" width="95" height="98" as="geometry">
            <mxRectangle width="95" height="98" as="alternateBounds" />
          </mxGeometry>
        </mxCell>
        <mxCell id="HJJHkAVv1ydhezdsSPti-219" style="shape=partialRectangle;html=1;whiteSpace=wrap;connectable=0;fillColor=none;top=0;left=0;bottom=0;right=0;overflow=hidden;fontSize=12;strokeColor=inherit;" vertex="1" parent="HJJHkAVv1ydhezdsSPti-216">
          <mxGeometry x="190" width="95" height="98" as="geometry">
            <mxRectangle width="95" height="98" as="alternateBounds" />
          </mxGeometry>
        </mxCell>
        <mxCell id="HJJHkAVv1ydhezdsSPti-220" style="shape=partialRectangle;html=1;whiteSpace=wrap;connectable=0;fillColor=none;top=0;left=0;bottom=0;right=0;overflow=hidden;fontSize=12;strokeColor=inherit;" vertex="1" parent="HJJHkAVv1ydhezdsSPti-216">
          <mxGeometry x="285" width="95" height="98" as="geometry">
            <mxRectangle width="95" height="98" as="alternateBounds" />
          </mxGeometry>
        </mxCell>
        <mxCell id="HJJHkAVv1ydhezdsSPti-221" value="" style="whiteSpace=wrap;html=1;verticalAlign=top;labelBackgroundColor=default;" vertex="1" parent="HJJHkAVv1ydhezdsSPti-216">
          <mxGeometry x="380" width="NaN" height="98" as="geometry">
            <mxRectangle width="NaN" height="98" as="alternateBounds" />
          </mxGeometry>
        </mxCell>
        <mxCell id="HJJHkAVv1ydhezdsSPti-222" value="" style="whiteSpace=wrap;html=1;fontSize=16;fillColor=none;startSize=0;" vertex="1" parent="HJJHkAVv1ydhezdsSPti-216">
          <mxGeometry width="NaN" height="98" as="geometry">
            <mxRectangle width="NaN" height="98" as="alternateBounds" />
          </mxGeometry>
        </mxCell>
        <mxCell id="HJJHkAVv1ydhezdsSPti-241" value="" style="triangle;whiteSpace=wrap;html=1;strokeColor=default;align=center;verticalAlign=middle;fontFamily=Helvetica;fontSize=16;fontColor=default;startSize=0;fillColor=none;direction=south;" vertex="1" parent="1">
          <mxGeometry x="-440" y="415" width="20" height="10" as="geometry" />
        </mxCell>
        <mxCell id="HJJHkAVv1ydhezdsSPti-242" value="" style="shape=image;verticalLabelPosition=bottom;labelBackgroundColor=default;verticalAlign=top;aspect=fixed;imageAspect=0;image=data:image/png,iVBORw0KGgoAAAANSUhEUgAAAEkAAAAoCAYAAACy29cjAAABaklEQVRoBe3YQUsCURQFYP9m1CYiF21aBxEE1U4oi6J2kmS2cSW4DKFFP0CoaGcNQeoiKXScuPEEd+E9vOZeEs7ArN55Mu+b4/jGgvBQBQpqggEhElACIhEJEAAibBKRAAEgwiYRCRAAImzSf0GapJlcX7Zls3gua0tHuZ3FlWMpHTTktdsDlhofcWnSTbWdG8xvyAE/y77jFZSZLkj7O3VTpAD3lgyUpcYPuyCdHTZNkdaXy/L1OY5XUGa6IPXeP2R368oEamP1VO7vHpVl/m3YBWl2ieEB+9Dp5nY+PyUSfhSsD1ck68VYfT6RAFkiEQkQACKuTeKDe84dGfSH3ALM8ZkOXZy0TPZIs1eUsJkcjVLtMqLHXb5ue9s1U6SAlbz0oxG0iS5ItcqtKVJ4wbXcVLogpfyrRCvr4o+7NGnRmYgE3EEiEQkQACJsEpEAASDCJhEJEAAibBKRAAEgwiYRCRAAImwSgPQDwtnPIFkmfLsAAAAASUVORK5CYII=;" vertex="1" parent="1">
          <mxGeometry x="-480" y="410" width="38.78" height="21.25" as="geometry" />
        </mxCell>
        <mxCell id="HJJHkAVv1ydhezdsSPti-244" value="&lt;div style=&quot;text-align: left; border-color: var(--border-color); font-size: 12px;&quot;&gt;&lt;font style=&quot;font-size: 12px;&quot;&gt;&lt;span style=&quot;background-color: initial; font-size: 12px;&quot;&gt;{&lt;/span&gt;&lt;br style=&quot;font-size: 12px;&quot;&gt;&lt;/font&gt;&lt;/div&gt;&lt;div style=&quot;border-color: var(--border-color); text-align: left; font-size: 12px;&quot;&gt;&lt;font style=&quot;font-size: 12px;&quot;&gt;&amp;nbsp; &amp;nbsp; &quot;name&quot;: &quot;one&quot;,&lt;/font&gt;&lt;/div&gt;&lt;div style=&quot;border-color: var(--border-color); font-size: 12px;&quot;&gt;&lt;font style=&quot;font-size: 12px;&quot;&gt;&amp;nbsp; &amp;nbsp; &quot;id&quot;: &quot;1&quot;,&lt;/font&gt;&lt;/div&gt;&lt;div style=&quot;border-color: var(--border-color); font-size: 12px;&quot;&gt;&lt;font style=&quot;font-size: 12px;&quot;&gt;&amp;nbsp; &amp;nbsp; &quot;schema&quot;: {a: 1}&lt;/font&gt;&lt;/div&gt;&lt;div style=&quot;text-align: left; border-color: var(--border-color); font-size: 12px;&quot;&gt;&lt;font style=&quot;font-size: 12px;&quot;&gt;&amp;nbsp; }&lt;/font&gt;&lt;/div&gt;" style="rounded=1;whiteSpace=wrap;html=1;strokeColor=inherit;align=center;verticalAlign=middle;fontFamily=Helvetica;fontSize=16;fontColor=default;startSize=0;fillColor=none;" vertex="1" parent="1">
          <mxGeometry x="-400" y="440" width="220" height="90" as="geometry" />
        </mxCell>
        <mxCell id="HJJHkAVv1ydhezdsSPti-251" value="JSON visualization module&lt;br&gt;disable edit" style="rounded=0;whiteSpace=wrap;html=1;strokeColor=inherit;align=center;verticalAlign=middle;fontFamily=Helvetica;fontSize=16;fontColor=default;startSize=0;fillColor=default;" vertex="1" parent="1">
          <mxGeometry x="-405" y="630" width="230" height="60" as="geometry" />
        </mxCell>
        <mxCell id="HJJHkAVv1ydhezdsSPti-253" value="" style="endArrow=classic;html=1;rounded=0;fontFamily=Helvetica;fontSize=16;fontColor=default;startSize=0;exitX=0.5;exitY=1;exitDx=0;exitDy=0;entryX=1;entryY=0.5;entryDx=0;entryDy=0;edgeStyle=orthogonalEdgeStyle;" edge="1" parent="1" source="HJJHkAVv1ydhezdsSPti-193" target="HJJHkAVv1ydhezdsSPti-205">
          <mxGeometry width="50" height="50" relative="1" as="geometry">
            <mxPoint x="-130" y="500" as="sourcePoint" />
            <mxPoint x="-80" y="450" as="targetPoint" />
            <Array as="points">
              <mxPoint x="135" y="450" />
            </Array>
          </mxGeometry>
        </mxCell>
        <mxCell id="HJJHkAVv1ydhezdsSPti-254" value="clicke icon expand/collapse row" style="edgeLabel;html=1;align=center;verticalAlign=middle;resizable=0;points=[];fontSize=16;fontFamily=Helvetica;fontColor=default;" vertex="1" connectable="0" parent="HJJHkAVv1ydhezdsSPti-253">
          <mxGeometry x="0.3946" y="-3" relative="1" as="geometry">
            <mxPoint x="20" y="3" as="offset" />
          </mxGeometry>
        </mxCell>
        <mxCell id="HJJHkAVv1ydhezdsSPti-255" value="" style="endArrow=classic;html=1;rounded=0;fontFamily=Helvetica;fontSize=16;fontColor=default;startSize=0;exitX=0.5;exitY=1;exitDx=0;exitDy=0;entryX=0.5;entryY=0;entryDx=0;entryDy=0;" edge="1" parent="1" source="HJJHkAVv1ydhezdsSPti-244" target="HJJHkAVv1ydhezdsSPti-251">
          <mxGeometry width="50" height="50" relative="1" as="geometry">
            <mxPoint x="-70" y="640" as="sourcePoint" />
            <mxPoint x="-20" y="590" as="targetPoint" />
          </mxGeometry>
        </mxCell>
      </root>
    </mxGraphModel>
  </diagram>
</mxfile>
